<svg width="31" height="28" viewBox="0 0 31 28" fill="none" xmlns="http://www.w3.org/2000/svg">
<path d="M30.5823 8.34656L28.3255 6.07037C28.1207 5.86631 27.7899 5.86201 27.5873 6.06608L25.3111 8.32293C25.1063 8.527 25.1042 8.85707 25.3068 9.06114C25.5109 9.2652 25.8424 9.2695 26.045 9.06543L27.4226 7.69929V21.403C27.4226 21.6915 27.656 21.9249 27.9446 21.9249C28.2331 21.9249 28.4665 21.6915 28.4665 21.403V7.69643L29.8391 9.08119C29.9422 9.18429 30.0754 9.23656 30.21 9.23656C30.3425 9.23656 30.4764 9.18644 30.5773 9.08548C30.7835 8.88142 30.7857 8.55062 30.5823 8.34656Z" fill="white"/>
<path d="M15.8884 11.4798V1.78152L17.2632 3.167C17.3648 3.2701 17.4987 3.32094 17.6333 3.32094C17.7658 3.32094 17.8997 3.27082 18.0014 3.16915C18.2054 2.96651 18.2076 2.63572 18.0035 2.43094L15.7459 0.154753C15.5433 -0.0500252 15.2118 -0.0521733 15.0085 0.151889L12.7323 2.40875C12.5275 2.61281 12.5253 2.94289 12.728 3.14695C12.9328 3.35101 13.2621 3.35531 13.4662 3.15124L14.8438 1.7851V11.4798C10.5692 11.7512 7.17175 15.3055 7.17175 19.6473C7.17175 24.1654 10.8477 27.8413 15.3657 27.8413C19.8838 27.8413 23.5597 24.1654 23.5597 19.6473C23.5605 15.3055 20.1637 11.7512 15.8884 11.4798ZM18.141 17.6561C18.1403 17.6561 18.1403 17.6561 18.141 17.6568C18.1353 17.7378 18.1252 17.8201 18.1124 17.9017C18.1081 17.9289 18.103 17.9569 18.098 17.9841C18.0873 18.0392 18.068 18.09 18.0415 18.1359C18.0415 18.1359 18.0422 18.1366 18.0415 18.1366C18.0157 18.1831 17.9828 18.2239 17.9441 18.2597C17.8238 18.3714 17.6534 18.4266 17.4844 18.3972C17.3756 18.3757 17.2811 18.3227 17.2095 18.2476C17.0949 18.1294 17.0383 17.9583 17.072 17.7843C17.1966 17.1442 16.9417 16.5177 16.4648 16.136C16.4641 16.1368 16.4641 16.1368 16.4641 16.136C16.4262 16.106 16.3875 16.078 16.3474 16.0501C16.3474 16.0501 16.3474 16.0501 16.3467 16.0501C16.2865 16.0093 16.2235 15.9728 16.1569 15.9406H16.1562C16.1125 15.9191 16.0674 15.899 16.0209 15.8804H16.0202C15.9744 15.8625 15.9271 15.8461 15.8784 15.8325C15.8297 15.8189 15.7796 15.8067 15.7288 15.7967C15.176 15.6885 14.6204 15.8783 14.2323 16.2492C14.1707 16.3079 14.1142 16.3709 14.0619 16.4382C13.9839 16.5392 13.9165 16.6487 13.8621 16.7661C13.817 16.8642 13.7812 16.9673 13.7554 17.0747C13.7504 17.0962 13.7461 17.1184 13.7418 17.1399C13.6817 17.4463 13.7118 17.7506 13.8142 18.0256C13.8335 18.0771 13.855 18.128 13.8793 18.1774C13.9638 18.3499 14.0784 18.5082 14.2173 18.6442C14.4342 18.8576 14.712 19.0165 15.0314 19.0939C15.1889 19.1318 15.3529 19.1461 15.5161 19.1612C15.6371 19.1726 15.7631 19.1848 15.892 19.2049C15.9335 19.2106 15.9751 19.2177 16.0173 19.2256C16.1154 19.2442 16.2142 19.2679 16.313 19.3001C16.3259 19.3037 16.3388 19.308 16.3517 19.313C16.4634 19.3509 16.5751 19.4003 16.6846 19.4648C16.8178 19.5428 16.9438 19.6323 17.0605 19.7304C17.0992 19.7633 17.1371 19.797 17.1737 19.8321C17.1744 19.8321 17.1744 19.8321 17.1744 19.8321C17.2023 19.8586 17.2295 19.8858 17.256 19.913C17.4429 20.1042 17.6004 20.3218 17.725 20.5574C17.7608 20.6247 17.7937 20.6934 17.8231 20.7636C17.8381 20.7987 17.8524 20.8338 17.866 20.8696C17.9069 20.9763 17.9405 21.0865 17.967 21.1982C17.9849 21.2727 17.9999 21.3479 18.0114 21.4238C18.0758 21.8491 18.0372 22.2658 17.9147 22.6496C17.9083 22.671 17.9011 22.6925 17.8933 22.714C17.8195 22.9288 17.7185 23.1322 17.5947 23.3197C17.5825 23.3391 17.5696 23.3577 17.5567 23.3763C17.5317 23.4128 17.5052 23.4493 17.4773 23.4851C17.4228 23.5567 17.3641 23.6255 17.3025 23.6906C17.2718 23.7236 17.2395 23.7558 17.2073 23.7873C16.8522 24.1303 16.4011 24.3816 15.8891 24.4954V25.0718C15.8891 25.1441 15.8748 25.2129 15.8476 25.2752C15.8476 25.2752 15.8483 25.2752 15.8476 25.2759C15.8347 25.3067 15.819 25.336 15.7996 25.364C15.781 25.3919 15.7596 25.4177 15.7359 25.4413C15.6414 25.5358 15.5111 25.5938 15.3665 25.5938C15.2225 25.5938 15.0922 25.5358 14.9977 25.4413C14.9039 25.3468 14.8452 25.2165 14.8452 25.0718V24.5305H14.8445C14.7736 24.5183 14.7034 24.5033 14.634 24.4861C14.5645 24.4682 14.4965 24.4482 14.4292 24.426C14.3283 24.3916 14.2287 24.3522 14.1328 24.3064C14.0691 24.2756 14.0068 24.2434 13.9459 24.209C13.8535 24.1568 13.7648 24.0995 13.6795 24.0365C13.623 23.9949 13.5678 23.9513 13.5149 23.9054C13.5141 23.9054 13.5141 23.9054 13.5141 23.9054C13.1941 23.6298 12.9356 23.2804 12.7688 22.8787C12.6857 22.6775 12.6256 22.4634 12.5919 22.2386C12.5783 22.1476 12.5891 22.0581 12.6191 21.9772C12.6292 21.9493 12.6428 21.9214 12.6585 21.8956C12.6814 21.8562 12.7094 21.8204 12.7416 21.7889C12.8175 21.7145 12.9163 21.6622 13.0301 21.645C13.1196 21.6328 13.2077 21.6436 13.2872 21.6729C13.3452 21.6937 13.3989 21.7245 13.4454 21.7639C13.4569 21.7739 13.4683 21.7839 13.4791 21.7954C13.4984 21.814 13.5163 21.8347 13.5313 21.8562C13.5636 21.8992 13.5886 21.9479 13.6051 22.0009C13.6058 22.0009 13.6051 22.0016 13.6051 22.0016C13.6137 22.0281 13.6201 22.0553 13.6244 22.0839C13.6416 22.1992 13.6702 22.3095 13.7089 22.4154C13.7168 22.4362 13.7247 22.457 13.7332 22.4777C13.7504 22.5193 13.769 22.5594 13.7891 22.5987C13.8356 22.6882 13.8893 22.7734 13.9495 22.8522C13.9645 22.8722 13.9796 22.8916 13.996 22.9109C14.0282 22.9489 14.0619 22.9854 14.0963 23.0205C14.4657 23.3906 15.0006 23.5875 15.5533 23.5095C15.9207 23.4544 16.2436 23.284 16.4899 23.0412C16.8643 22.6732 17.0634 22.1369 16.9796 21.5791C16.9746 21.5476 16.9689 21.5168 16.9624 21.4861C16.9496 21.4238 16.9331 21.3629 16.913 21.3028C16.8343 21.0629 16.7011 20.8424 16.5271 20.6605C16.5056 20.6376 16.4834 20.6154 16.4605 20.5939C16.3682 20.5073 16.2672 20.4307 16.1569 20.3662C16.1326 20.3519 16.1075 20.339 16.0818 20.3276C16.056 20.3161 16.0288 20.3061 16.0008 20.2968C15.9378 20.2753 15.8698 20.2588 15.7975 20.2474C15.7481 20.2381 15.6965 20.2302 15.6436 20.2237C15.5712 20.2151 15.4961 20.208 15.4173 20.2008C15.2046 20.1808 14.9913 20.1579 14.7872 20.1092C14.2738 19.9853 13.827 19.7275 13.4783 19.3824C12.8504 18.7624 12.5382 17.8588 12.7165 16.9394C12.8246 16.3838 13.096 15.8998 13.4712 15.5274C13.8457 15.1551 14.3232 14.8938 14.8445 14.7821H14.8452V14.2222C14.8452 14.0782 14.9039 13.9472 14.9977 13.8527C15.0922 13.7582 15.2225 13.7002 15.3665 13.7002C15.5111 13.7002 15.6414 13.7589 15.7359 13.8527C15.7596 13.8763 15.781 13.9021 15.7996 13.93C15.819 13.9579 15.8347 13.9873 15.8476 14.0181C15.8483 14.0188 15.8476 14.0188 15.8476 14.0188C15.8748 14.0811 15.8891 14.1498 15.8891 14.2222V14.7663C15.9028 14.7685 15.9149 14.767 15.9285 14.7699C16.2715 14.8365 16.5873 14.9654 16.8658 15.1422C16.9059 15.1659 16.9453 15.1923 16.9832 15.2203C17.203 15.3742 17.3971 15.5604 17.5603 15.7687C17.5983 15.816 17.6341 15.8654 17.6677 15.9148C17.6899 15.947 17.7107 15.9792 17.7314 16.0122C17.7722 16.078 17.8102 16.1446 17.8453 16.2134C17.9162 16.3516 17.9756 16.4955 18.0221 16.6444C18.0307 16.6709 18.0386 16.6974 18.0458 16.7246C18.0601 16.7726 18.0723 16.822 18.083 16.8707C18.1252 17.0604 18.1474 17.2566 18.1482 17.4556C18.1482 17.5222 18.146 17.5888 18.141 17.6561Z" fill="white"/>
<path d="M3.16789 6.0697C2.96598 5.86779 2.63518 5.86278 2.42969 6.06684L0.154216 8.32513C-0.0498462 8.52776 -0.0519943 8.85855 0.151352 9.06333C0.35613 9.26596 0.684778 9.27026 0.890988 9.0662L2.26715 7.70077V21.4037C2.26715 21.6923 2.50057 21.9257 2.78912 21.9257C3.07768 21.9257 3.31109 21.6923 3.31109 21.4037V7.69647L4.68511 9.08195C4.78822 9.18362 4.9214 9.23589 5.05601 9.23589C5.18847 9.23589 5.32236 9.18577 5.42403 9.08481C5.6281 8.88075 5.63024 8.55067 5.42618 8.34518L3.16789 6.0697Z" fill="white"/>
</svg>
